<svg id="Layer_1" data-name="Layer 1" xmlns="http://www.w3.org/2000/svg" viewBox="0 0 743.43 498.8"><defs><style>.cls-1{stroke:#000;stroke-miterlimit:10;}</style></defs><ellipse class="cls-1" cx="382.6" cy="85.64" rx="78.38" ry="85.14"/><rect class="cls-1" x="447.76" y="228.05" width="171.62" height="47.3" transform="translate(-8.38 306.08) rotate(-45)"/><rect class="cls-1" x="118.73" y="227.35" width="171.62" height="47.3" transform="translate(185.01 428.18) rotate(-135)"/><path class="cls-1" d="M688.76,190.51,597.44,212l-21.26-37.8,91.32-21.51c16.13-3.8,34,1.58,39.84,12h0C713.21,175.17,704.89,186.71,688.76,190.51Z" transform="translate(13.33 -144.93)"/><path class="cls-1" d="M47.7,189.81,139,211.32l21.26-37.8L69,152c-16.13-3.8-34,1.58-39.84,12h0C23.25,174.47,31.57,186,47.7,189.81Z" transform="translate(13.33 -144.93)"/><path class="cls-1" d="M456.81,294.92c-14.41,19.49-48,33.15-87.08,33.15s-72.67-13.66-87.08-33.15h-44V473.3h40c17.09-26.74,50.69-44.92,89.35-44.92s72.26,18.18,89.35,44.92H492.7V294.92Z" transform="translate(13.33 -144.93)"/><path d="M-9.22,443.92A150.54,150.54,0,0,0,2.5,499.59c6,14,15,27.89,28.32,35.92,14.9,9,33.18,8,47.58-1.53,16-10.57,24.8-28.12,35.27-43.56,9.65-14.23,22.62-27.65,39.51-32.77a43.41,43.41,0,0,1,20.74-1.42c9.37,1.83,13.5,8.64,17.49,16.69,8.7,17.51,17.26,35.43,31.84,49,11.51,10.66,26.12,18,42,18.44,16.25.47,31.48-6.68,43.4-17.35,12.36-11.07,20.83-25.87,30.73-39,7.58-10.06,18.43-23.54,32.7-20,15.45,3.86,27.61,18.65,38.08,29.7,20.4,21.51,48.5,49,81.3,40.86,16.21-4,27.36-17.08,35.12-31.15,6.32-11.47,13.93-35.53,30.69-33.7,8.1.89,14.93,6.67,20.35,12.32,6.53,6.8,11.94,14.54,17.23,22.3,10.8,15.85,21.26,32.86,36.26,45.16,12.66,10.4,28.33,16.36,44.3,9.94S703.09,538.62,713,525c5.62-7.73,10.79-15.78,15.9-23.86s-7.8-15.72-12.95-7.57c-9.68,15.3-19.5,31.3-33.08,43.5-10.71,9.62-23,13.42-35.92,5.51-15.67-9.63-26.18-26.61-36.23-41.49-9.76-14.45-19.9-30.53-34.94-40.05-15.33-9.7-33.82-8-45.52,6.41-10.63,13.07-14.9,30.43-26.54,42.69-22.1,23.3-53.16,3.17-71.24-14.81-19.82-19.72-47.25-58.72-80-43.54-13.63,6.32-22.92,20-31.35,31.86-9.07,12.75-17.85,26.69-31.55,35-11.85,7.16-25.81,8.77-38.78,3.65-15.46-6.1-26.32-19.8-34.52-33.69-9-15.27-14.17-37.44-32-44.83-14.67-6.06-32.14-3-46,3.81-15.73,7.69-27.9,21-37.58,35.31C90.83,497.45,82.37,516,65.64,524,33.28,539.41,14.27,494.82,9,470.91a140.81,140.81,0,0,1-3.19-27c-.25-9.64-15.25-9.67-15,0Z" transform="translate(13.33 -144.93)"/><path d="M-13.32,525.59A150.54,150.54,0,0,0-1.6,581.26c6,14,15,27.9,28.32,35.92,14.9,9,33.18,8,47.58-1.53,16-10.56,24.8-28.12,35.27-43.55,9.65-14.24,22.62-27.65,39.5-32.78a43.45,43.45,0,0,1,20.75-1.42c9.37,1.83,13.5,8.64,17.49,16.69,8.7,17.52,17.26,35.44,31.84,49,11.51,10.67,26.12,18,42,18.44,16.24.48,31.48-6.68,43.4-17.35,12.36-11.07,20.83-25.87,30.73-39,7.58-10.06,18.43-23.55,32.7-20,15.45,3.86,27.61,18.65,38.08,29.7,20.4,21.52,48.5,49,81.3,40.87,16.21-4,27.36-17.09,35.12-31.15,6.32-11.48,13.93-35.54,30.69-33.7,8.1.88,14.93,6.67,20.35,12.31,6.53,6.8,11.93,14.54,17.23,22.31,10.8,15.84,21.26,32.85,36.25,45.16,12.67,10.39,28.34,16.35,44.31,9.94s27.69-20.79,37.61-34.42c5.62-7.74,10.79-15.79,15.9-23.87s-7.8-15.72-12.95-7.57c-9.68,15.3-19.5,31.31-33.09,43.51-10.7,9.62-23,13.41-35.91,5.5-15.67-9.62-26.18-26.6-36.23-41.49-9.76-14.44-19.9-30.53-34.94-40-15.34-9.7-33.83-8-45.52,6.41-10.63,13.06-14.9,30.42-26.54,42.69-22.1,23.29-53.16,3.16-71.24-14.82-19.82-19.71-47.25-58.72-80-43.54-13.63,6.32-22.92,20-31.35,31.87-9.07,12.75-17.85,26.68-31.55,35-11.85,7.17-25.81,8.77-38.78,3.65-15.46-6.09-26.32-19.79-34.52-33.68-9-15.27-14.17-37.45-32-44.83-14.67-6.07-32.14-2.95-46,3.8-15.74,7.69-27.9,21-37.58,35.31-9.88,14.6-18.34,33.19-35.07,41.15-32.36,15.42-51.37-29.18-56.68-53.08a141.7,141.7,0,0,1-3.18-27c-.25-9.63-15.25-9.67-15,0Z" transform="translate(13.33 -144.93)"/></svg>